# xmcd
#
# Track frame offsets:
#	150
#	14899
#	32121
#	47664
#	63019
#	79986
#	94347
#	112062
#	126696
#	140095
#	155536
#	169895
#
# Disc length: 2436 seconds
#
# Revision: 0
# Processed by: cddbd v1.5.2PL0 Copyright (c) Steve Scherf et al.
# Submitted via: EZCDAudioConverter 4.0.5.1
#
DISCID=b309820c
DTITLE=Gino and Geno - A Galera do Chapéu
DYEAR=2005
DGENRE=Sertanejo
TTITLE0=Agita Aí
TTITLE1=Acidente de Amor
TTITLE2=Bebo Pa Carai
TTITLE3=Cara Boa
TTITLE4=O Gavião
TTITLE5=A Galera do Chapéu
TTITLE6=A Mulher e a Bebida
TTITLE7=Que Amor é Esse
TTITLE8=Que Bicho que é
TTITLE9=Saudade Cigana
TTITLE10=To Ficando com Ela
TTITLE11=Uma Notícia pra Te Dar
EXTD=
EXTT0=
EXTT1=
EXTT2=
EXTT3=
EXTT4=
EXTT5=
EXTT6=
EXTT7=
EXTT8=
EXTT9=
EXTT10=
EXTT11=
PLAYORDER=
